# xmcd
#
# Track frame offsets:
#	150
#	15412
#	33749
#	48036
#	64348
#	80060
#	99222
#	119659
#	135221
#	149283
#	169645
#	187607
#	198894
#	214231
#	227168
#	241830
#	258442
#	270256
#
# Disc length: 3796 seconds
#
# Revision: 3
# Processed by: cddbd v1.5.2PL0 Copyright (c) Steve Scherf et al.
# Submitted via: audiograbber 1.83.01
#
DISCID=ea0ed212
DTITLE=Various Artist - Country Jan 11
DYEAR=2011
DGENRE=Country
TTITLE0=LeAnn Rimes  - Crazy Women 
TTITLE1=Easton Corbin  - I Can't Love You Back 
TTITLE2=Alan Jackson - Ring Of Fire 
TTITLE3=Darius Rucker - This
TTITLE4=Chuck Wicks  - Old School 
TTITLE5=Jason Aldean and Kelly Clarkson - Don't You Wanna Stay  
TTITLE6=Point Of Grace  - Labor Of Love 
TTITLE7=Josh Thompson  - Won't Be Lonely Long 
TTITLE8=Blake Wise - I've Got This Feeling  
TTITLE9=Sugarland - Little Miss
TTITLE10=Lathan Moore  - Love In Your Life 
TTITLE11=Katie Armiger - Best Song Ever  
TTITLE12=Troy Olsen  - Good Hands 
TTITLE13=Johnny Patton - Too Late To Go Home Early  
TTITLE14=Aaron Tippin   - I Wanna Play
TTITLE15=Madonna Nash - Dirty Little Secret  
TTITLE16=Danielle Car - Walk Of Shame  
TTITLE17=Matt Gary - I'm Just Sayin' 
EXTD=
EXTT0=
EXTT1=
EXTT2=
EXTT3=
EXTT4=
EXTT5=
EXTT6=
EXTT7=
EXTT8=
EXTT9=
EXTT10=
EXTT11=
EXTT12=
EXTT13=
EXTT14=
EXTT15=
EXTT16=
EXTT17=
PLAYORDER=
